PathFileType	4	(X/Y/Z)	10_1_31_p1_0-343.trc
DataRate	CameraRate	NumFrames	NumMarkers	Units	OrigDataRate	OrigDataStartFrame	OrigNumFrames
59.0	59.0	5	27	m	59.0	129	344
Frame#	Time	RHip			RKnee			RAnkle			RBigToe			RSmallToe			RHeel			LHip			LKnee			LAnkle			LBigToe			LSmallToe			LHeel			Neck			Head			Nose			RShoulder			RElbow			RWrist			RThumb			RIndex			RPinky			LShoulder			LElbow			LWrist			LThumb			LIndex			LPinky			
		X1	Y1	Z1	X2	Y2	Z2	X3	Y3	Z3	X4	Y4	Z4	X5	Y5	Z5	X6	Y6	Z6	X7	Y7	Z7	X8	Y8	Z8	X9	Y9	Z9	X10	Y10	Z10	X11	Y11	Z11	X12	Y12	Z12	X13	Y13	Z13	X14	Y14	Z14	X15	Y15	Z15	X16	Y16	Z16	X17	Y17	Z17	X18	Y18	Z18	X19	Y19	Z19	X20	Y20	Z20	X21	Y21	Z21	X22	Y22	Z22	X23	Y23	Z23	X24	Y24	Z24	X25	Y25	Z25	X26	Y26	Z26	X27	Y27	Z27	
129	2.1864406779661016	0.2932796698114355	0.548085641554334	1.0410341639932907	0.2772934883523974	0.4756214894723367	1.4136663780201508	0.2720666229115484	0.7451691128562828	1.7901467159112987	0.27839541461790324	0.5892891308325524	1.8524391189436247	0.32888950081913887	0.6104617008999832	1.8342476473380829	0.2529255077569222	0.8512423364292624	1.8475923304869117	0.09796116184040711	0.521417403025797	1.0349542897302972	0.10195932952175152	0.4547598017819502	1.4128781886425812	0.07316715165575033	0.738917183950864	1.7837360320894253	0.09527923296578703	0.6370992174972546	1.891160108009013	0.04910626916137718	0.621235601281885	1.8511679918004318	0.07794852072983091	0.8424853114924995	1.837700213661675	0.19638607913033793	0.43164855740195895	0.48240989674316337	0.21636607813091654	0.31449366819103575	0.28859625232353303	0.21605508052641928	0.30086180130689216	0.4055846806307956	0.33029257215059776	0.41302113948981356	0.541203511986535	0.34088684305590256	0.4350595831152796	0.7821946743832682	0.1306947340004035	0.41182864403843716	0.756778529766498	0.05273096342677378	0.43143684995743725	0.6824743934472706	0.052629498135069126	0.4165898435854355	0.7374182226695133	0.06258553025460348	0.44643896364608504	0.7889139604042993	0.06184029604107855	0.42898996857113547	0.5247789708049154	0.0732844241410528	0.43530152976772385	0.7693712016765418	0.25893898534071064	0.42578310675054865	0.7442142888026003	0.34135345251376087	0.40313630008883594	0.6773584142680379	0.3402405884405295	0.4039008257621598	0.7126030543354597	0.33415061981098887	0.4307947628189767	0.7591292243291284
130	2.2033898305084745	0.2939545722668958	0.5504949778896934	1.0451789703649137	0.2838093595759466	0.46297599928550653	1.4104929446469425	0.2751493216656094	0.7600937562355117	1.7950362489846134	0.27836965976253675	0.5892899088914916	1.8525599708035636	0.3322111651847911	0.62370574530067	1.83901316488821	0.2529432595526745	0.8513976657637918	1.8468463567835463	0.09843921099486287	0.5204488855818229	1.031347626651324	0.10191924813596652	0.4548365940988119	1.413060411577065	0.07322923076517716	0.7390075535229093	1.7837590932363283	0.10107129185090566	0.6218614223549263	1.8847308009215742	0.04907433676961022	0.6213259451860914	1.8512248713718302	0.07785247100842005	0.8446817567235106	1.8342387454669014	0.19609058484783357	0.4319959656321446	0.4823574105947328	0.21629126243854208	0.31436387544093425	0.2885559626298829	0.21143451184312279	0.31234081956748894	0.4048641377096244	0.33080700684536274	0.4144645410192896	0.5411879573257428	0.3408073940243377	0.43503574332970496	0.7823522341719611	0.13061749956592958	0.4117660864288684	0.7567280185057108	0.051529285019627336	0.4206447293133313	0.6821250645035261	0.051671457350471774	0.4098652633242283	0.739269440446946	0.0628761418223974	0.44981980939417426	0.7930176497090713	0.06150849394760247	0.4296831984519765	0.5283825226165086	0.07322235826019188	0.43561797709827044	0.7692432439123176	0.2630244898813375	0.42770562590714123	0.7475880771318069	0.3411291908645514	0.403539519684427	0.6748473131244467	0.3398809186289077	0.40201709259347423	0.709604863463547	0.3347012550035375	0.43014732123077143	0.7624900657396838
131	2.2203389830508473	0.2936234153053037	0.5509449190558829	1.0416221809927608	0.2862882825367174	0.4755753885544859	1.421092213791035	0.27519001338880755	0.7602363585879054	1.795044550812836	0.27834217990157106	0.5894811319667796	1.8523697877083354	0.33096355159978125	0.6211566307120294	1.8339115796573067	0.25653319959126425	0.8666719435572294	1.851823949652609	0.0978683238636635	0.5215398664769532	1.0349759133861098	0.1023888391903371	0.45365771760328016	1.4165102932357494	0.07324407034179901	0.7389671248843495	1.7837725342668267	0.10111402943667257	0.6217480387650454	1.8846557254170144	0.04909605287039505	0.6212647320320813	1.851151400664077	0.07779703942658693	0.8448168975469738	1.8342774644453	0.1959683986146396	0.4325569207592956	0.48896802705546777	0.21623391669338332	0.3142566618538013	0.28853881953368155	0.2112306074873299	0.31248896599778325	0.404940064380594	0.3273708766866355	0.4017298325452221	0.5419257132208488	0.34087061579884226	0.43495920155098466	0.7820128434868535	0.12659714437597586	0.4098167168689762	0.7532490350560083	0.053990587459641824	0.4420441299120529	0.6769452432670606	0.05961525707007712	0.43622502137796987	0.73797115925794	0.06366289434591475	0.461046786328362	0.7882404136230943	0.06148469579261752	0.42996198112141054	0.5286525510448362	0.06988533820515387	0.43396887929661887	0.7693375697148153	0.25927302668966795	0.42522763476012804	0.7476185446056579	0.3415051704292176	0.4026824610438921	0.6735350760969963	0.34012974792825856	0.4037938388749498	0.7135162649377458	0.33502384936719176	0.4292745511970653	0.7586681409761447
132	2.23728813559322	0.2932975325906683	0.5512109203022013	1.0496013379563662	0.2863552369364401	0.475587869361526	1.4211808037817433	0.27282190805035816	0.7432117547466436	1.7942906876366849	0.2753215054575296	0.5760234232757648	1.8482721464576832	0.3279424015707439	0.6084824101936979	1.8300822722427272	0.25103948099594053	0.8451952396020481	1.8450376421497445	0.0982314957992029	0.5243616889011813	1.0399115249473068	0.10266375042672009	0.4572558585700036	1.4174418349941296	0.08253533254848036	0.7373274553657667	1.7782939395165551	0.10498356604699956	0.5917161201444687	1.8727524963150597	0.04911903813295741	0.6205612043562175	1.8504292329273966	0.08090669994163123	0.8610135503135641	1.8440643957161515	0.19590398144615018	0.4336566202640791	0.4927292240255559	0.2116122051157389	0.32570317254473974	0.2871582743677289	0.20478776923242079	0.2993676056687402	0.4064008835678995	0.32343325902335296	0.40004786223028227	0.5422575017673459	0.34087670354008576	0.43514564497356045	0.782054710562908	0.12659997100464757	0.4104963962061083	0.7534605746628198	0.05371378942390826	0.44421563279752	0.6895148316731518	0.06085751295788136	0.4423570512370311	0.7458912559350341	0.06586022147556678	0.4694763775024111	0.791013074508978	0.0618972837776181	0.4313327129424172	0.5287880576375368	0.07202339437173344	0.4475398371810427	0.7695942596768994	0.2619680453182512	0.4341103066210505	0.7402656233808704	0.33803078640235495	0.4020466967892539	0.6731328648562592	0.33971688342609807	0.40215181310142917	0.7072173713660148	0.3353956021446212	0.42964218590016356	0.7617319750122249
133	2.2542372881355934	0.29335839166482897	0.5511105622437905	1.0496670490489002	0.286284771165525	0.4754365820364973	1.4214520417366874	0.27572890307924725	0.7583169506479442	1.7991141592153297	0.2783100182816605	0.5896338590417483	1.852528057763222	0.33100478771723824	0.6214923422023154	1.8341942750971618	0.2505381703071971	0.8468454822170716	1.8404892272918036	0.09411631779759791	0.5230826508526237	1.0399487209378582	0.10260979985587253	0.4574780273262901	1.4176172182819262	0.0793001909846354	0.7238425069530585	1.7781356558530104	0.09924316653749585	0.6066183915101115	1.8789527882186265	0.049130734491857106	0.6206473321484735	1.8505784266727623	0.08062086624281307	0.8601198781703662	1.8435863470579603	0.19609856359079117	0.4333339252051328	0.4928327022043888	0.21152262970986763	0.3256444590260008	0.2871308308051668	0.20209968559250943	0.2879478347133077	0.40772432463545993	0.32382707092721025	0.4019230797547104	0.5457367337422316	0.3409354326956035	0.43518283985410133	0.7818629671116236	0.1302499558104987	0.41269742318098374	0.7529797616754422	0.05482064338006405	0.45502115284982875	0.6901044389371886	0.0604217519988393	0.44155140968044815	0.743405666445264	0.07186066456180457	0.4900226668839716	0.7971269734649524	0.06187191318468971	0.4315467698920823	0.5289954255455093	0.07209509230168841	0.44789277504644004	0.7696851558547665	0.266920583302352	0.4409578767673618	0.7475706680209202	0.3382481218881766	0.4027044597742365	0.6796969369486326	0.339828954953044	0.40251197906038516	0.7080844041750305	0.3382505257240419	0.4324442515188149	0.7622139101094199
